<svg viewBox="0 0 192 192" xmlns="http://www.w3.org/2000/svg"> <path fill="#ea4335" d="M175.88,59.22v36.36h-80v-80h36.36C156.34,15.58,175.88,35.12,175.88,59.22z"></path> <path fill="#fbbc04" d="M15.88,95.58V59.33c0-24.16,19.59-43.75,43.75-43.75h36.25v80H15.88z"></path> <path fill="#4285f4" d="M175.88,95.58v36.36c0,24.1-19.54,43.64-43.64,43.64H95.88v-80H175.88z"></path> <path fill="#34a853" d="M95.88,175.58H59.51c-24.1,0-43.64-19.54-43.64-43.64V95.58h80v80H95.88z"></path> <path fill="#fff" d="M125.88,155.58h-60c-16.57,0-30-13.43-30-30v-60c0-16.57,13.43-30,30-30h60 c16.57,0,30,13.43,30,30v60C155.88,142.15,142.44,155.58,125.88,155.58z"></path> <polygon fill="#4285f4" points="75.88,127.58 131.88,95.58 75.88,63.58"></polygon> </svg>