<svg viewBox="0 0 192 192" xmlns="http://www.w3.org/2000/svg"> <path fill="#34a853" d="M156.24,52.3v20c0,15.82-12.54,20-19.18,20h-4.82v-40L156.24,52.3 M160.24,40.3h-40v64h16.82 c14.03,0,31.18-10.08,31.18-32v-24C168.24,43.88,164.65,40.3,160.24,40.3L160.24,40.3z"></path> <path fill="#34a853" d="M60.24,52.3v40h-4.82c-6.63,0-19.18-4.18-19.18-20v-20L60.24,52.3 M72.24,40.3h-40c-4.42,0-8,3.58-8,8v24 c0,21.92,17.14,32,31.18,32h16.82V40.3L72.24,40.3z"></path> <rect fill="#f9ab00" height="32" width="32" x="80.24" y="112.3"></rect> <path fill="#fbbc04" d="M144.24,76.67c0,25.78-20.37,47.28-46.15,47.94c-0.61,0.02-1.23,0.02-1.85,0.02s-1.24-0.01-1.85-0.02 c-25.78-0.65-46.15-22.15-46.15-47.94v-44.1h96V76.67z"></path> <rect fill="#ea4335" height="8" width="32" x="80.24" y="144.3"></rect> <path fill="#4285f4" d="M136.24,168.3h-80v-16c0-4.42,3.58-8,8-8H128c4.55,0,8.23,3.58,8.23,8v16H136.24z"></path> <rect fill="#f9ab00" height="12" width="48" x="48.24" y="24.3"></rect> <rect fill="#f29900" height="12" width="48" x="96.24" y="24.3"></rect> <rect fill="#ea4335" height="7.98" width="32" x="80.24" y="136.3"></rect> <polygon fill="#fff" points="122.78,67.52 103.69,65.9 96.24,48.3 88.78,65.9 69.69,67.52 84.18,80.08 79.83,98.74 96.24,88.84 112.64,98.74 108.29,80.08"></polygon> </svg>